Coordinates
nRows=4
nColumns=38

# SIMM Motion File Header:
name Coordinates
datacolumns 38
datarows 4
otherdata 1
range 0.18099999999999999000 0.18400000000000000000

Units are S.I. units (second, meters, Newtons, ...)
Angles are in degrees.

endheader
time	pelvis_tilt	pelvis_list	pelvis_rotation	pelvis_tx	pelvis_ty	pelvis_tz	hip_flexion_r	hip_adduction_r	hip_rotation_r	knee_angle_r	ankle_angle_r	subtalar_angle_r	mtp_angle_r	hip_flexion_l	hip_adduction_l	hip_rotation_l	knee_angle_l	ankle_angle_l	subtalar_angle_l	mtp_angle_l	lumbar_extension	lumbar_bending	lumbar_rotation	arm_flex_r	arm_add_r	arm_rot_r	elbow_flex_r	pro_sup_r	wrist_flex_r	wrist_dev_r	arm_flex_l	arm_add_l	arm_rot_l	elbow_flex_l	pro_sup_l	wrist_flex_l	wrist_dev_l
      0.18099999999999999000	     -6.54500593555646490000	     -0.07072162776521721800	      0.55881466053237505000	      0.80931590352976346000	      1.03539477008397210000	     -0.33883990520022556000	     28.13512463111092600000	      2.33055306627619570000	     -9.53003403339754310000	     -7.03587974220067030000	    -18.47480522611617100000	      0.00000000000000000000	      0.00000000000000000000	     -8.26001229887299710000	     -0.50285412294982201000	     -7.53104093871542450000	    -65.46526703114577100000	    -21.30146242594290100000	      0.00000000000000000000	      0.00000000000000000000	      0.03558465042798109000	      3.24371733203919810000	    -13.91062330721879500000	    -35.76661441906360700000	    -24.88098256303495900000	      1.10078271919270310000	     76.24709705783561700000	     67.89992617768726300000	      0.00000000000000000000	      0.00000000000000000000	     -3.78276020046851350000	    -37.41914028689490800000	     22.43755492357446700000	    119.11018113567829000000	     77.17886320603511800000	      0.00000000000000000000	      0.00000000000000000000
      0.18200000000000000000	     -6.51203807587342090000	     -0.06981662766967335100	      0.50918050225343681000	      0.80934043474588924000	      1.03487061030003110000	     -0.33870365012176762000	     28.06089038033492100000	      2.37264556661551880000	     -9.58682606391442070000	     -7.06388824700302730000	    -18.58012019857313700000	     -0.00000000000000000153	     -0.00000000000000000376	     -8.12675412785691620000	     -0.52667091531883070000	     -7.54508194341498850000	    -66.08386207628815600000	    -21.14913252709909100000	      0.00000000000000000016	     -0.00000000000000000136	      0.01367046575800367000	      3.26745608888042320000	    -13.80708559530506500000	    -35.65092477965244200000	    -24.85430251613459900000	      1.08829690212970890000	     76.18575487492971400000	     67.87552656321841500000	     -0.00000000000000000064	     -0.00000000000000000063	     -3.88981369846639690000	    -37.38999486214424200000	     22.47712457991079300000	    118.86344042962564000000	     77.12727497233977700000	      0.00000000000000000002	      0.00000000000000000092
      0.18300000000000000000	     -6.47875649139338080000	     -0.07061678307794527800	      0.45940690738136492000	      0.80936187652107183000	      1.03433812985473210000	     -0.33856633805555963000	     27.98904895392654200000	      2.41656251129858910000	     -9.63214550598005910000	     -7.10605128292238140000	    -18.67468215083540500000	     -0.00000000000000000597	     -0.00000000000000000497	     -7.99176958769791490000	     -0.55255419471566947000	     -7.55956896326091600000	    -66.70336388925048300000	    -20.99369274435940700000	      0.00000000000000000005	     -0.00000000000000000301	     -0.00900904625717718030	      3.29314885490808740000	    -13.70344131423985700000	    -35.53284844923231800000	    -24.82862726035119000000	      1.07808750137516100000	     76.12418811797155600000	     67.85257220308366800000	     -0.00000000000000000138	     -0.00000000000000000023	     -3.99763630568793980000	    -37.35982441309384700000	     22.51540815612117900000	    118.61443631859838000000	     77.07871031775657400000	      0.00000000000000000055	      0.00000000000000000138
      0.18400000000000000000	     -6.44509373227489850000	     -0.07316690800976115300	      0.40945125300386120000	      0.80938020891350693000	      1.03379754580257810000	     -0.33842797844813916000	     27.91951491003103300000	      2.46232010217011420000	     -9.66669357796596880000	     -7.16227357537220220000	    -18.76154457023467600000	     -0.00000000000000001803	     -0.00000000000000000448	     -7.85516126364769280000	     -0.58055072697158627000	     -7.57454062716050380000	    -67.32368265384971600000	    -20.83528100833132500000	     -0.00000000000000000105	     -0.00000000000000000749	     -0.03254968538815973500	      3.32086202177178570000	    -13.59962864444015000000	    -35.41241008410243300000	    -24.80398013356597200000	      1.07013123930643020000	     76.06247917256759200000	     67.83108732159026000000	     -0.00000000000000000192	     -0.00000000000000000140	     -4.10615235298873050000	    -37.32861545244865200000	     22.55244875602865300000	    118.36316516495157000000	     77.03325394569351700000	      0.00000000000000000132	      0.00000000000000000171
